<svg width="151" height="54" viewBox="0 0 151 54" fill="none" xmlns="http://www.w3.org/2000/svg">
<path d="M19.3444 6.82687C19.6379 6.42416 19.9558 6.03366 20.0536 5.94823C20.1514 5.87501 20.3226 5.8384 20.4326 5.88722C20.5427 5.93603 20.9951 6.49738 21.4475 7.13195C21.8999 7.76647 22.6579 8.90123 23.147 9.63344L23.1471 9.63363C23.6362 10.378 24.1131 11.2567 24.2109 11.5862C24.3087 11.9278 24.3821 12.3428 24.3821 12.538C24.3821 12.7211 24.2843 13.075 24.1742 13.319C24.0519 13.5631 23.624 14.0634 23.2205 14.4295C22.817 14.7956 22.2545 15.2471 21.9733 15.4424C21.6798 15.6376 21.3497 15.7841 21.2396 15.7719C21.1174 15.7475 20.9462 15.4912 20.8117 15.1251C20.6894 14.7956 20.4693 14.3441 20.3104 14.1366C20.1636 13.917 19.5034 13.2946 18.8308 12.7333C18.1217 12.1231 17.5347 11.5251 17.4002 11.2567C17.2657 11.0004 17.1679 10.6831 17.1679 10.5489C17.1679 10.4146 17.2902 10.0485 17.4491 9.73125C17.6081 9.40176 17.9749 8.7916 18.2684 8.35228C18.5618 7.91296 19.0509 7.22958 19.3444 6.82687Z" fill="#1E1E1E"/>
<path d="M10.4184 13.075C10.4062 12.1109 10.4428 11.2811 10.504 11.2445C10.5651 11.1956 10.6752 11.159 10.773 11.159C10.8586 11.159 11.2499 11.3299 11.6411 11.5373C12.0202 11.757 12.387 11.9645 12.4604 12.0133C12.5337 12.0621 13.5731 12.6112 14.7836 13.2336C15.9941 13.856 17.2657 14.5393 17.5959 14.7468C17.9382 14.9665 18.3295 15.296 18.464 15.5034C18.6108 15.6987 18.8186 16.0404 18.9287 16.26C19.0387 16.4675 19.161 17.0166 19.1977 17.4803C19.2466 17.9319 19.2466 18.8837 19.1977 19.6159C19.1365 20.7508 19.0998 20.9217 18.9164 20.9217C18.7942 20.9217 18.4518 20.7752 18.1461 20.6044C17.8404 20.4335 16.9601 19.9576 16.1897 19.5549C15.4194 19.14 14.0744 18.42 13.2062 17.9441C12.1302 17.3583 11.4944 16.919 11.2132 16.5895C10.9931 16.321 10.7241 15.8085 10.6263 15.4668C10.504 15.0519 10.4306 14.1855 10.4184 13.075Z" fill="#1E1E1E"/>
<path d="M25.6293 15.9915C27.121 15.1983 28.6005 14.3807 28.9062 14.1977C29.2119 14.0024 29.5543 13.8438 29.6766 13.8438C29.7866 13.8438 29.9089 13.9658 29.9578 14.1244C29.9945 14.2709 30.0067 15.2471 29.9822 16.2844C29.9456 17.9197 29.9089 18.2369 29.6888 18.6641C29.5421 18.9325 29.2119 19.3474 28.9429 19.5793C28.6739 19.8112 27.9892 20.2505 27.4267 20.5434C26.8643 20.8362 26.045 21.2756 25.6048 21.5196C25.1646 21.7637 24.59 22.081 24.3209 22.2152C24.0519 22.3617 23.3794 22.7034 22.8292 22.984C22.2667 23.2525 21.7043 23.4844 21.5698 23.4844C21.4231 23.4844 21.3008 23.3745 21.2519 23.2159C21.2152 23.0572 21.203 22.1908 21.2274 21.2878C21.2641 19.738 21.2886 19.6037 21.6309 18.9203C21.8388 18.5298 22.1934 18.0295 22.4502 17.822C22.6947 17.6146 24.1253 16.7848 25.6293 15.9915Z" fill="#1E1E1E"/>
<path d="M5.61302 20.0064C5.61302 18.3956 5.6497 16.98 5.69861 16.858C5.7842 16.6627 5.82089 16.6627 6.30998 16.858C6.60344 16.9678 7.60609 17.4559 8.5476 17.9441C9.48911 18.42 11.1398 19.2742 12.2158 19.8356C13.2918 20.3969 14.7836 21.1657 15.505 21.5318C16.3731 21.9712 17.0946 22.4349 17.5714 22.8742C18.0972 23.3623 18.4151 23.8016 19.1854 25.3759L19.161 28.4267C19.1488 30.1107 19.0876 31.5141 19.0387 31.5751C18.9898 31.624 18.3662 31.3677 17.657 31.0016C16.9478 30.6477 15.5172 29.9155 14.4779 29.3785C13.4386 28.8416 12.1669 28.1826 11.6656 27.9142C11.1643 27.6457 10.0393 27.0477 9.15897 26.5962C8.10741 26.0471 7.38599 25.5711 7.01917 25.205C6.71349 24.8999 6.2733 24.2532 5.61302 22.9352V20.0064Z" fill="#1E1E1E"/>
<path d="M30.0678 21.5806C30.8137 21.1901 32.0731 20.5312 32.8801 20.1163C33.6871 19.7013 34.4452 19.3474 34.5675 19.3474C34.6776 19.3352 34.8365 19.4573 34.9099 19.6037C35.0077 19.799 35.0322 20.7264 34.9955 22.5691C34.9466 24.5705 34.8854 25.4125 34.7387 25.864C34.6287 26.2057 34.3596 26.7548 34.1273 27.0843C33.9072 27.426 33.3937 27.9386 32.9902 28.2436C32.5867 28.5487 31.4128 29.2199 30.3735 29.7569C29.3342 30.2816 28.4294 30.7575 28.356 30.8063C28.2826 30.8551 27.5979 31.2335 26.8276 31.624C26.0572 32.0267 24.6022 32.7833 23.5873 33.308C22.4257 33.906 21.6798 34.2233 21.5453 34.1744C21.3497 34.1134 21.3252 33.8572 21.3252 31.3311C21.3252 29.4884 21.3741 28.3413 21.4842 27.9386C21.5698 27.6091 21.8266 27.0111 22.0589 26.6206C22.3034 26.2301 22.7803 25.681 23.1593 25.3759C23.5262 25.083 24.6266 24.4362 25.6048 23.9359C26.583 23.4478 27.6835 22.8742 28.0503 22.6667C28.4171 22.4593 29.322 21.9834 30.0678 21.5806Z" fill="#1E1E1E"/>
<path d="M1.00329 28.8294C0.991062 25.6687 1.00329 25.4369 1.21116 25.3271C1.35788 25.2538 1.56575 25.266 1.87144 25.3881C2.11598 25.4857 2.99636 25.9372 3.84005 26.3765C4.68374 26.8159 5.94316 27.487 6.65235 27.8531C7.36154 28.2192 7.99736 28.5609 8.0585 28.6097C8.13187 28.6586 9.28124 29.2687 10.6263 29.9521C11.9713 30.6355 13.6464 31.5019 14.3556 31.8802C15.0648 32.2463 15.9941 32.8077 16.4343 33.125C16.8745 33.4422 17.4125 33.9182 17.6448 34.1744C17.8771 34.4429 18.2317 35.0043 18.4273 35.4436C18.623 35.8829 18.8675 36.4809 18.9531 36.7859C19.0754 37.2009 19.1243 38.3114 19.1243 41.3866C19.1243 44.9133 19.0998 45.4503 18.9409 45.4503C18.8431 45.4503 18.464 45.2672 18.1217 45.0354C17.7671 44.8157 16.6788 44.23 15.7006 43.754C14.7224 43.2659 13.8421 42.8388 13.7442 42.7778C13.6464 42.729 12.8761 42.3018 12.0324 41.8503C11.1887 41.3866 9.51356 40.508 8.30305 39.8978C7.09254 39.2754 5.66193 38.5432 5.12393 38.2625C4.58592 37.9697 3.95009 37.5914 3.70555 37.4205C3.47323 37.2375 3.00858 36.7982 2.7029 36.4443C2.38499 36.1026 1.99371 35.5168 1.83475 35.1629C1.68802 34.8212 1.51684 34.4185 1.46793 34.2843C1.41902 34.15 1.29675 33.6253 1.19893 33.125C1.07665 32.4904 1.01552 31.1846 1.00329 28.8294Z" fill="#1E1E1E"/>
<path d="M36.9641 28.9026C37.5999 28.5731 38.3336 28.1826 38.6148 28.0362C38.896 27.8897 39.1772 27.7799 39.2384 27.8043C39.3117 27.8287 39.3607 29.3053 39.3607 31.9168C39.3607 35.9439 39.3607 36.0049 39.055 36.908C38.8838 37.4083 38.5292 38.1405 38.2602 38.5432C37.9912 38.9581 37.4654 39.5317 37.0741 39.8368C36.6951 40.1419 36.1693 40.4958 35.9125 40.63C35.6558 40.7642 35.0322 41.0937 34.5308 41.3744C34.0295 41.6429 32.6234 42.3873 31.4128 43.0096C30.2023 43.632 28.9674 44.2788 28.6617 44.4496C28.356 44.6083 27.4512 45.0964 26.6442 45.5113C25.8371 45.9262 24.9812 46.3777 24.7489 46.512C24.5166 46.6462 23.7463 47.0611 23.0371 47.4394C22.3279 47.8177 21.6554 48.135 21.5453 48.135C21.4231 48.135 21.3008 48.0496 21.2641 47.952C21.2274 47.8543 21.2274 46.1947 21.2763 44.2666C21.313 42.3262 21.3864 40.3981 21.4597 39.9588C21.5331 39.4585 21.7532 38.7995 22.0711 38.1893C22.3401 37.6524 22.817 36.9446 23.1349 36.6273C23.4528 36.2978 23.9297 35.8829 24.1987 35.6999C24.4677 35.5168 25.1035 35.1385 25.6048 34.87C26.1061 34.6016 27.8669 33.6863 29.5176 32.8565C31.1683 32.0145 32.8434 31.148 33.247 30.9284C33.6505 30.7087 34.3352 30.3426 34.7754 30.0985C35.2156 29.8667 35.6313 29.6348 35.6924 29.586C35.7658 29.5372 36.3283 29.2199 36.9641 28.9026Z" fill="#1E1E1E"/>
<path d="M19.3444 6.82687C19.6379 6.42416 19.9558 6.03366 20.0536 5.94823C20.1514 5.87501 20.3226 5.8384 20.4326 5.88722C20.5427 5.93603 20.9951 6.49738 21.4475 7.13195C21.8999 7.76647 22.6579 8.90123 23.147 9.63344L23.1471 9.63363C23.6362 10.378 24.1131 11.2567 24.2109 11.5862C24.3087 11.9278 24.3821 12.3428 24.3821 12.538C24.3821 12.7211 24.2843 13.075 24.1742 13.319C24.0519 13.5631 23.624 14.0634 23.2205 14.4295C22.817 14.7956 22.2545 15.2471 21.9733 15.4424C21.6798 15.6376 21.3497 15.7841 21.2396 15.7719C21.1174 15.7475 20.9462 15.4912 20.8117 15.1251C20.6894 14.7956 20.4693 14.3441 20.3104 14.1366C20.1636 13.917 19.5034 13.2946 18.8308 12.7333C18.1217 12.1231 17.5347 11.5251 17.4002 11.2567C17.2657 11.0004 17.1679 10.6831 17.1679 10.5489C17.1679 10.4146 17.2902 10.0485 17.4491 9.73125C17.6081 9.40176 17.9749 8.7916 18.2684 8.35228C18.5618 7.91296 19.0509 7.22958 19.3444 6.82687Z" stroke="#1E1E1E" stroke-width="0.239071"/>
<path d="M10.4184 13.075C10.4062 12.1109 10.4428 11.2811 10.504 11.2445C10.5651 11.1956 10.6752 11.159 10.773 11.159C10.8586 11.159 11.2499 11.3299 11.6411 11.5373C12.0202 11.757 12.387 11.9645 12.4604 12.0133C12.5337 12.0621 13.5731 12.6112 14.7836 13.2336C15.9941 13.856 17.2657 14.5393 17.5959 14.7468C17.9382 14.9665 18.3295 15.296 18.464 15.5034C18.6108 15.6987 18.8186 16.0404 18.9287 16.26C19.0387 16.4675 19.161 17.0166 19.1977 17.4803C19.2466 17.9319 19.2466 18.8837 19.1977 19.6159C19.1365 20.7508 19.0998 20.9217 18.9164 20.9217C18.7942 20.9217 18.4518 20.7752 18.1461 20.6044C17.8404 20.4335 16.9601 19.9576 16.1897 19.5549C15.4194 19.14 14.0744 18.42 13.2062 17.9441C12.1302 17.3583 11.4944 16.919 11.2132 16.5895C10.9931 16.321 10.7241 15.8085 10.6263 15.4668C10.504 15.0519 10.4306 14.1855 10.4184 13.075Z" stroke="#1E1E1E" stroke-width="0.239071"/>
<path d="M25.6293 15.9915C27.121 15.1983 28.6005 14.3807 28.9062 14.1977C29.2119 14.0024 29.5543 13.8438 29.6766 13.8438C29.7866 13.8438 29.9089 13.9658 29.9578 14.1244C29.9945 14.2709 30.0067 15.2471 29.9822 16.2844C29.9456 17.9197 29.9089 18.2369 29.6888 18.6641C29.5421 18.9325 29.2119 19.3474 28.9429 19.5793C28.6739 19.8112 27.9892 20.2505 27.4267 20.5434C26.8643 20.8362 26.045 21.2756 25.6048 21.5196C25.1646 21.7637 24.59 22.081 24.3209 22.2152C24.0519 22.3617 23.3794 22.7034 22.8292 22.984C22.2667 23.2525 21.7043 23.4844 21.5698 23.4844C21.4231 23.4844 21.3008 23.3745 21.2519 23.2159C21.2152 23.0572 21.203 22.1908 21.2274 21.2878C21.2641 19.738 21.2886 19.6037 21.6309 18.9203C21.8388 18.5298 22.1934 18.0295 22.4502 17.822C22.6947 17.6146 24.1253 16.7848 25.6293 15.9915Z" stroke="#1E1E1E" stroke-width="0.239071"/>
<path d="M5.61302 20.0064C5.61302 18.3956 5.6497 16.98 5.69861 16.858C5.7842 16.6627 5.82089 16.6627 6.30998 16.858C6.60344 16.9678 7.60609 17.4559 8.5476 17.9441C9.48911 18.42 11.1398 19.2742 12.2158 19.8356C13.2918 20.3969 14.7836 21.1657 15.505 21.5318C16.3731 21.9712 17.0946 22.4349 17.5714 22.8742C18.0972 23.3623 18.4151 23.8016 19.1854 25.3759L19.161 28.4267C19.1488 30.1107 19.0876 31.5141 19.0387 31.5751C18.9898 31.624 18.3662 31.3677 17.657 31.0016C16.9478 30.6477 15.5172 29.9155 14.4779 29.3785C13.4386 28.8416 12.1669 28.1826 11.6656 27.9142C11.1643 27.6457 10.0393 27.0477 9.15897 26.5962C8.10741 26.0471 7.38599 25.5711 7.01917 25.205C6.71349 24.8999 6.2733 24.2532 5.61302 22.9352V20.0064Z" stroke="#1E1E1E" stroke-width="0.239071"/>
<path d="M30.0678 21.5806C30.8137 21.1901 32.0731 20.5312 32.8801 20.1163C33.6871 19.7013 34.4452 19.3474 34.5675 19.3474C34.6776 19.3352 34.8365 19.4573 34.9099 19.6037C35.0077 19.799 35.0322 20.7264 34.9955 22.5691C34.9466 24.5705 34.8854 25.4125 34.7387 25.864C34.6287 26.2057 34.3596 26.7548 34.1273 27.0843C33.9072 27.426 33.3937 27.9386 32.9902 28.2436C32.5867 28.5487 31.4128 29.2199 30.3735 29.7569C29.3342 30.2816 28.4294 30.7575 28.356 30.8063C28.2826 30.8551 27.5979 31.2335 26.8276 31.624C26.0572 32.0267 24.6022 32.7833 23.5873 33.308C22.4257 33.906 21.6798 34.2233 21.5453 34.1744C21.3497 34.1134 21.3252 33.8572 21.3252 31.3311C21.3252 29.4884 21.3741 28.3413 21.4842 27.9386C21.5698 27.6091 21.8266 27.0111 22.0589 26.6206C22.3034 26.2301 22.7803 25.681 23.1593 25.3759C23.5262 25.083 24.6266 24.4362 25.6048 23.9359C26.583 23.4478 27.6835 22.8742 28.0503 22.6667C28.4171 22.4593 29.322 21.9834 30.0678 21.5806Z" stroke="#1E1E1E" stroke-width="0.239071"/>
<path d="M1.00329 28.8294C0.991062 25.6687 1.00329 25.4369 1.21116 25.3271C1.35788 25.2538 1.56575 25.266 1.87144 25.3881C2.11598 25.4857 2.99636 25.9372 3.84005 26.3765C4.68374 26.8159 5.94316 27.487 6.65235 27.8531C7.36154 28.2192 7.99736 28.5609 8.0585 28.6097C8.13187 28.6586 9.28124 29.2687 10.6263 29.9521C11.9713 30.6355 13.6464 31.5019 14.3556 31.8802C15.0648 32.2463 15.9941 32.8077 16.4343 33.125C16.8745 33.4422 17.4125 33.9182 17.6448 34.1744C17.8771 34.4429 18.2317 35.0043 18.4273 35.4436C18.623 35.8829 18.8675 36.4809 18.9531 36.7859C19.0754 37.2009 19.1243 38.3114 19.1243 41.3866C19.1243 44.9133 19.0998 45.4503 18.9409 45.4503C18.8431 45.4503 18.464 45.2672 18.1217 45.0354C17.7671 44.8157 16.6788 44.23 15.7006 43.754C14.7224 43.2659 13.8421 42.8388 13.7442 42.7778C13.6464 42.729 12.8761 42.3018 12.0324 41.8503C11.1887 41.3866 9.51356 40.508 8.30305 39.8978C7.09254 39.2754 5.66193 38.5432 5.12393 38.2625C4.58592 37.9697 3.95009 37.5914 3.70555 37.4205C3.47323 37.2375 3.00858 36.7982 2.7029 36.4443C2.38499 36.1026 1.99371 35.5168 1.83475 35.1629C1.68802 34.8212 1.51684 34.4185 1.46793 34.2843C1.41902 34.15 1.29675 33.6253 1.19893 33.125C1.07665 32.4904 1.01552 31.1846 1.00329 28.8294Z" stroke="#1E1E1E" stroke-width="0.239071"/>
<path d="M36.9641 28.9026C37.5999 28.5731 38.3336 28.1826 38.6148 28.0362C38.896 27.8897 39.1772 27.7799 39.2384 27.8043C39.3117 27.8287 39.3607 29.3053 39.3607 31.9168C39.3607 35.9439 39.3607 36.0049 39.055 36.908C38.8838 37.4083 38.5292 38.1405 38.2602 38.5432C37.9912 38.9581 37.4654 39.5317 37.0741 39.8368C36.6951 40.1419 36.1693 40.4958 35.9125 40.63C35.6558 40.7642 35.0322 41.0937 34.5308 41.3744C34.0295 41.6429 32.6234 42.3873 31.4128 43.0096C30.2023 43.632 28.9674 44.2788 28.6617 44.4496C28.356 44.6083 27.4512 45.0964 26.6442 45.5113C25.8371 45.9262 24.9812 46.3777 24.7489 46.512C24.5166 46.6462 23.7463 47.0611 23.0371 47.4394C22.3279 47.8177 21.6554 48.135 21.5453 48.135C21.4231 48.135 21.3008 48.0496 21.2641 47.952C21.2274 47.8543 21.2274 46.1947 21.2763 44.2666C21.313 42.3262 21.3864 40.3981 21.4597 39.9588C21.5331 39.4585 21.7532 38.7995 22.0711 38.1893C22.3401 37.6524 22.817 36.9446 23.1349 36.6273C23.4528 36.2978 23.9297 35.8829 24.1987 35.6999C24.4677 35.5168 25.1035 35.1385 25.6048 34.87C26.1061 34.6016 27.8669 33.6863 29.5176 32.8565C31.1683 32.0145 32.8434 31.148 33.247 30.9284C33.6505 30.7087 34.3352 30.3426 34.7754 30.0985C35.2156 29.8667 35.6313 29.6348 35.6924 29.586C35.7658 29.5372 36.3283 29.2199 36.9641 28.9026Z" stroke="#1E1E1E" stroke-width="0.239071"/>
<line x1="49.6886" y1="2.40984" x2="49.6886" y2="51.5902" stroke="#1E1E1E" stroke-width="0.983607"/>
<path d="M75.9189 9.26557L70.6517 24.9344H64.3001L59.0328 9.26557H64.2558L67.4869 20.0434L70.696 9.26557H75.9189ZM81.9318 9.26557V24.9344H77.0187V9.26557H81.9318ZM90.6795 9.26557C92.3172 9.26557 93.7484 9.59754 94.973 10.2615C96.2123 10.9254 97.1639 11.8475 97.8279 13.0279C98.4918 14.2082 98.8238 15.5508 98.8238 17.0557C98.8238 18.5459 98.4918 19.8885 97.8279 21.0836C97.1639 22.2787 96.2123 23.2229 94.973 23.9164C93.7484 24.5951 92.3172 24.9344 90.6795 24.9344H84.1508V9.26557H90.6795ZM90.2369 20.5525C91.3434 20.5525 92.2213 20.25 92.8705 19.6451C93.5197 19.0402 93.8443 18.177 93.8443 17.0557C93.8443 15.9344 93.5197 15.0713 92.8705 14.4664C92.2213 13.8615 91.3434 13.559 90.2369 13.559H89.0639V20.5525H90.2369ZM110.645 22.5664H105.422L104.648 24.9344H99.4913L105.223 9.26557H110.889L116.599 24.9344H111.42L110.645 22.5664ZM109.45 18.8705L108.034 14.5107L106.618 18.8705H109.45ZM131.125 15.3516V19.4016H120.812V15.3516H131.125ZM144.118 25.0893C142.244 25.0893 140.695 24.6541 139.47 23.7836C138.26 22.8984 137.604 21.6074 137.501 19.9107H142.723C142.797 20.8107 143.196 21.2607 143.919 21.2607C144.184 21.2607 144.405 21.2016 144.583 21.0836C144.774 20.9508 144.87 20.7516 144.87 20.4861C144.87 20.1172 144.671 19.8221 144.273 19.6008C143.874 19.3648 143.255 19.0992 142.414 18.8041C141.41 18.45 140.577 18.1033 139.913 17.7639C139.264 17.4246 138.703 16.9303 138.231 16.2811C137.759 15.632 137.53 14.7984 137.545 13.7803C137.545 12.7623 137.803 11.8992 138.319 11.191C138.851 10.468 139.566 9.92213 140.466 9.55328C141.381 9.18442 142.406 9 143.542 9C145.46 9 146.98 9.44262 148.101 10.3279C149.237 11.2131 149.835 12.4598 149.894 14.068H144.605C144.59 13.6254 144.479 13.3082 144.273 13.1164C144.066 12.9246 143.815 12.8287 143.52 12.8287C143.314 12.8287 143.144 12.9025 143.011 13.05C142.878 13.1828 142.812 13.3746 142.812 13.6254C142.812 13.9795 143.004 14.2746 143.387 14.5107C143.786 14.732 144.413 15.0049 145.269 15.3295C146.257 15.6984 147.069 16.0525 147.703 16.3918C148.352 16.7311 148.913 17.2033 149.385 17.8082C149.857 18.4131 150.093 19.1729 150.093 20.0877C150.093 21.0467 149.857 21.9098 149.385 22.677C148.913 23.4295 148.227 24.0197 147.327 24.4475C146.427 24.8754 145.357 25.0893 144.118 25.0893Z" fill="#1E1E1E"/>
<path d="M65.7091 35.9549C65.7091 36.668 65.4632 37.2623 64.9714 37.7377C64.4878 38.2049 63.746 38.4385 62.746 38.4385H61.0984V42.0164H59.9796V33.4467H62.746C63.7132 33.4467 64.4468 33.6803 64.9468 34.1475C65.455 34.6147 65.7091 35.2172 65.7091 35.9549ZM62.746 37.5164C63.3689 37.5164 63.8279 37.3811 64.123 37.1106C64.4181 36.8402 64.5656 36.4549 64.5656 35.9549C64.5656 34.8975 63.9591 34.3688 62.746 34.3688H61.0984V37.5164H62.746ZM71.4964 41.1066H74.4964V42.0164H70.3775V33.4467H71.4964V41.1066ZM84.0281 40.1107H80.2904L79.6018 42.0164H78.4215L81.5199 33.4959H82.8109L85.8969 42.0164H84.7166L84.0281 40.1107ZM83.7084 39.2008L82.1592 34.8729L80.61 39.2008H83.7084ZM97.2629 42.0164H96.144L91.644 35.1926V42.0164H90.5252V33.4344H91.644L96.144 40.2459V33.4344H97.2629V42.0164ZM107.723 33.4467V34.3566H105.387V42.0164H104.268V34.3566H101.919V33.4467H107.723ZM113.497 34.3566V37.2213H116.62V38.1434H113.497V41.0943H116.988V42.0164H112.378V33.4344H116.988V34.3566H113.497Z" fill="#1E1E1E"/>
</svg>
