<svg width="24" height="25" viewBox="0 0 24 25" fill="none" xmlns="http://www.w3.org/2000/svg">
<path fill-rule="evenodd" clip-rule="evenodd" d="M2.06998 12.7962C2.06703 12.4978 2.18274 12.2105 2.39162 11.9975C2.60051 11.7844 2.88548 11.6631 3.18383 11.6602L18.4681 11.5095L14.3481 7.4699C14.1473 7.25861 14.0363 6.97762 14.0386 6.68613C14.0408 6.39465 14.1562 6.11542 14.3602 5.90728C14.5643 5.69913 14.8412 5.57833 15.1326 5.57032C15.424 5.5623 15.7071 5.6677 15.9223 5.86431L21.9812 11.8049C22.1939 12.0137 22.3151 12.2985 22.318 12.5966C22.3209 12.8947 22.2054 13.1818 21.9968 13.3948L16.0563 19.4536C15.845 19.6545 15.564 19.7654 15.2725 19.7632C14.981 19.7609 14.7018 19.6456 14.4937 19.4415C14.2855 19.2374 14.1647 18.9605 14.1567 18.6691C14.1487 18.3777 14.2541 18.0946 14.4507 17.8794L18.4903 13.7594L3.20601 13.91C2.90766 13.913 2.62035 13.7973 2.40731 13.5884C2.19426 13.3795 2.07292 13.0945 2.06998 12.7962Z" fill="#1E1E1E"/>
</svg>
