<svg width="24" height="26" viewBox="0 0 24 26" fill="none" xmlns="http://www.w3.org/2000/svg">
<path fill-rule="evenodd" clip-rule="evenodd" d="M11.25 3.25C6.142 3.25 2 7.39 2 12.498C2 17.606 6.142 21.746 11.25 21.746C13.4439 21.7506 15.5672 20.9711 17.237 19.548L20.718 23.028C20.7867 23.1017 20.8695 23.1608 20.9615 23.2018C21.0535 23.2428 21.1528 23.2648 21.2535 23.2666C21.3542 23.2684 21.4542 23.2498 21.5476 23.2121C21.641 23.1744 21.7258 23.1183 21.797 23.047C21.8683 22.9758 21.9244 22.891 21.9621 22.7976C21.9998 22.7042 22.0184 22.6042 22.0166 22.5035C22.0148 22.4028 21.9928 22.3035 21.9518 22.2115C21.9108 22.1195 21.8517 22.0367 21.778 21.968L18.298 18.488C19.7232 16.818 20.5042 14.6934 20.5 12.498C20.5 7.39 16.358 3.25 11.25 3.25ZM3.5 12.498C3.50053 10.4429 4.31728 8.47219 5.77063 7.01922C7.22398 5.56624 9.19492 4.75 11.25 4.75C12.278 4.73348 13.2989 4.92169 14.2534 5.30365C15.2079 5.68561 16.0769 6.25369 16.8097 6.97479C17.5425 7.6959 18.1244 8.55561 18.5217 9.50386C18.9189 10.4521 19.1235 11.4699 19.1235 12.498C19.1235 13.5261 18.9189 14.5439 18.5217 15.4921C18.1244 16.4404 17.5425 17.3001 16.8097 18.0212C16.0769 18.7423 15.2079 19.3104 14.2534 19.6924C13.2989 20.0743 12.278 20.2625 11.25 20.246C9.19492 20.246 7.22398 19.4298 5.77063 17.9768C4.31728 16.5238 3.50053 14.5531 3.5 12.498Z" fill="#1E1E1E"/>
</svg>
