<svg width="24" height="25" viewBox="0 0 24 25" fill="none" xmlns="http://www.w3.org/2000/svg">
<path fill-rule="evenodd" clip-rule="evenodd" d="M12 13.5C14.396 13.5 16.575 14.194 18.178 15.172C18.978 15.66 19.662 16.236 20.156 16.862C20.642 17.477 21 18.213 21 19C21 19.845 20.589 20.511 19.997 20.986C19.437 21.436 18.698 21.734 17.913 21.942C16.335 22.359 14.229 22.5 12 22.5C9.771 22.5 7.665 22.36 6.087 21.942C5.302 21.734 4.563 21.436 4.003 20.986C3.41 20.51 3 19.845 3 19C3 18.213 3.358 17.477 3.844 16.861C4.338 16.236 5.021 15.661 5.822 15.171C7.425 14.195 9.605 13.5 12 13.5ZM12 15.5C9.977 15.5 8.157 16.09 6.864 16.879C6.217 17.273 5.729 17.701 5.414 18.101C5.09 18.511 5 18.821 5 19C5 19.122 5.037 19.251 5.255 19.426C5.504 19.626 5.937 19.833 6.599 20.008C7.917 20.358 9.811 20.5 12 20.5C14.19 20.5 16.083 20.357 17.4 20.008C18.063 19.833 18.496 19.626 18.745 19.426C18.963 19.251 19 19.122 19 19C19 18.82 18.91 18.511 18.587 18.101C18.271 17.701 17.783 17.273 17.136 16.879C15.843 16.089 14.023 15.5 12 15.5ZM12 2.5C13.3261 2.5 14.5979 3.02678 15.5355 3.96447C16.4732 4.90215 17 6.17392 17 7.5C17 8.82608 16.4732 10.0979 15.5355 11.0355C14.5979 11.9732 13.3261 12.5 12 12.5C10.6739 12.5 9.40215 11.9732 8.46447 11.0355C7.52678 10.0979 7 8.82608 7 7.5C7 6.17392 7.52678 4.90215 8.46447 3.96447C9.40215 3.02678 10.6739 2.5 12 2.5ZM12 4.5C11.606 4.5 11.2159 4.5776 10.8519 4.72836C10.488 4.87913 10.1573 5.1001 9.87868 5.37868C9.6001 5.65726 9.37913 5.98797 9.22836 6.35195C9.0776 6.71593 9 7.10603 9 7.5C9 7.89397 9.0776 8.28407 9.22836 8.64805C9.37913 9.01203 9.6001 9.34274 9.87868 9.62132C10.1573 9.8999 10.488 10.1209 10.8519 10.2716C11.2159 10.4224 11.606 10.5 12 10.5C12.7956 10.5 13.5587 10.1839 14.1213 9.62132C14.6839 9.05871 15 8.29565 15 7.5C15 6.70435 14.6839 5.94129 14.1213 5.37868C13.5587 4.81607 12.7956 4.5 12 4.5Z" fill="#1E1E1E"/>
</svg>
